<svg xmlns="http://www.w3.org/2000/svg" version="1.1" xmlns:xlink="http://www.w3.org/1999/xlink" xmlns:svgjs="http://svgjs.com/svgjs" width="512" height="512" x="0" y="0" viewBox="0 0 469.333 469.333" style="enable-background:new 0 0 512 512" xml:space="preserve" class=""><g><path d="M202.667 0h-192C4.779 0 0 4.779 0 10.667v192c0 5.888 4.779 10.667 10.667 10.667h192c5.888 0 10.667-4.779 10.667-10.667v-192C213.333 4.779 208.555 0 202.667 0zM192 192H21.333V21.333H192V192zM458.667 0h-192C260.779 0 256 4.779 256 10.667v192c0 5.888 4.779 10.667 10.667 10.667h192c5.888 0 10.667-4.779 10.667-10.667v-192C469.333 4.779 464.555 0 458.667 0zM448 192H277.333V21.333H448V192zM202.667 256h-192C4.779 256 0 260.779 0 266.667v192c0 5.888 4.779 10.667 10.667 10.667h192c5.888 0 10.667-4.779 10.667-10.667v-192c-.001-5.888-4.779-10.667-10.667-10.667zM192 448H21.333V277.333H192V448zM458.667 256h-192c-5.888 0-10.667 4.779-10.667 10.667v192c0 5.888 4.779 10.667 10.667 10.667h192c5.888 0 10.667-4.779 10.667-10.667v-192c-.001-5.888-4.779-10.667-10.667-10.667zM448 448H277.333V277.333H448V448z" fill="#007cba" data-original="#000000" class=""></path></g></svg>