<svg xmlns="http://www.w3.org/2000/svg" version="1.1" xmlns:xlink="http://www.w3.org/1999/xlink" xmlns:svgjs="http://svgjs.com/svgjs" width="512" height="512" x="0" y="0" viewBox="0 0 512 512" style="enable-background:new 0 0 512 512" xml:space="preserve"><g><path d="M285.132 294.126h-58.264a39.782 39.782 0 0 0-39.736 39.736v138.4A39.781 39.781 0 0 0 226.868 512h58.264a39.781 39.781 0 0 0 39.736-39.735v-138.4a39.782 39.782 0 0 0-39.736-39.739Zm7.736 178.139a7.839 7.839 0 0 1-7.736 7.735h-58.264a7.839 7.839 0 0 1-7.736-7.735v-138.4a7.84 7.84 0 0 1 7.736-7.736h58.264a7.84 7.84 0 0 1 7.736 7.736ZM285.132 0h-58.264a39.781 39.781 0 0 0-39.736 39.735v138.4a39.782 39.782 0 0 0 39.736 39.736h58.264a39.782 39.782 0 0 0 39.736-39.736v-138.4A39.781 39.781 0 0 0 285.132 0Zm7.736 178.138a7.84 7.84 0 0 1-7.736 7.736h-58.264a7.84 7.84 0 0 1-7.736-7.736V39.735A7.839 7.839 0 0 1 226.868 32h58.264a7.839 7.839 0 0 1 7.736 7.735ZM98 0H39.736A39.782 39.782 0 0 0 0 39.736v432.528A39.782 39.782 0 0 0 39.736 512H98a39.781 39.781 0 0 0 39.736-39.736V39.736A39.781 39.781 0 0 0 98 0Zm7.736 472.264A7.839 7.839 0 0 1 98 480H39.736A7.839 7.839 0 0 1 32 472.264V39.736A7.839 7.839 0 0 1 39.736 32H98a7.839 7.839 0 0 1 7.736 7.736ZM472.264 0H414a39.782 39.782 0 0 0-39.736 39.736v432.528A39.782 39.782 0 0 0 414 512h58.264A39.782 39.782 0 0 0 512 472.264V39.736A39.782 39.782 0 0 0 472.264 0ZM480 472.264a7.839 7.839 0 0 1-7.736 7.736H414a7.839 7.839 0 0 1-7.736-7.736V39.736A7.839 7.839 0 0 1 414 32h58.264A7.839 7.839 0 0 1 480 39.736Z" fill="#007cba" data-original="#000000"></path></g></svg>